<svg width="100" height="100" viewBox="0 0 100 100" xmlns="http://www.w3.org/2000/svg">
  <!-- Horizontal lines -->
  <line x1="0" y1="20" x2="100" y2="20" stroke="#2DD4BF" stroke-width="0.5" stroke-opacity="0.3"/>
  <line x1="0" y1="50" x2="100" y2="50" stroke="#2DD4BF" stroke-width="0.5" stroke-opacity="0.3"/>
  <line x1="0" y1="80" x2="100" y2="80" stroke="#2DD4BF" stroke-width="0.5" stroke-opacity="0.3"/>
  
  <!-- Vertical lines -->
  <line x1="20" y1="0" x2="20" y2="100" stroke="#2DD4BF" stroke-width="0.5" stroke-opacity="0.3"/>
  <line x1="50" y1="0" x2="50" y2="100" stroke="#2DD4BF" stroke-width="0.5" stroke-opacity="0.3"/>
  <line x1="80" y1="0" x2="80" y2="100" stroke="#2DD4BF" stroke-width="0.5" stroke-opacity="0.3"/>
  
  <!-- Circles (nodes) -->
  <circle cx="20" cy="20" r="2" fill="#2DD4BF" fill-opacity="0.4"/>
  <circle cx="50" cy="20" r="1" fill="#2DD4BF" fill-opacity="0.4"/>
  <circle cx="80" cy="20" r="2" fill="#2DD4BF" fill-opacity="0.4"/>
  
  <circle cx="20" cy="50" r="1" fill="#2DD4BF" fill-opacity="0.4"/>
  <circle cx="50" cy="50" r="2" fill="#2DD4BF" fill-opacity="0.4"/>
  <circle cx="80" cy="50" r="1" fill="#2DD4BF" fill-opacity="0.4"/>
  
  <circle cx="20" cy="80" r="2" fill="#2DD4BF" fill-opacity="0.4"/>
  <circle cx="50" cy="80" r="1" fill="#2DD4BF" fill-opacity="0.4"/>
  <circle cx="80" cy="80" r="2" fill="#2DD4BF" fill-opacity="0.4"/>
  
  <!-- Circuit paths -->
  <path d="M20,20 L20,35 L35,35 L35,50 L50,50" fill="none" stroke="#2DD4BF" stroke-width="0.8" stroke-opacity="0.3"/>
  <path d="M80,20 L80,35 L65,35 L65,50 L50,50" fill="none" stroke="#2DD4BF" stroke-width="0.8" stroke-opacity="0.3"/>
  <path d="M20,80 L20,65 L35,65 L35,50 L50,50" fill="none" stroke="#2DD4BF" stroke-width="0.8" stroke-opacity="0.3"/>
  <path d="M80,80 L80,65 L65,65 L65,50 L50,50" fill="none" stroke="#2DD4BF" stroke-width="0.8" stroke-opacity="0.3"/>
  
  <!-- Small circuit elements -->
  <rect x="35" y="34" width="2" height="2" fill="#2DD4BF" fill-opacity="0.4"/>
  <rect x="65" y="34" width="2" height="2" fill="#2DD4BF" fill-opacity="0.4"/>
  <rect x="35" y="64" width="2" height="2" fill="#2DD4BF" fill-opacity="0.4"/>
  <rect x="65" y="64" width="2" height="2" fill="#2DD4BF" fill-opacity="0.4"/>
  
  <!-- Short circuit connections -->
  <path d="M10,20 L30,20" stroke="#2DD4BF" stroke-width="0.8" stroke-opacity="0.3"/>
  <path d="M70,20 L90,20" stroke="#2DD4BF" stroke-width="0.8" stroke-opacity="0.3"/>
  <path d="M20,10 L20,30" stroke="#2DD4BF" stroke-width="0.8" stroke-opacity="0.3"/>
  <path d="M80,10 L80,30" stroke="#2DD4BF" stroke-width="0.8" stroke-opacity="0.3"/>
  
  <path d="M10,80 L30,80" stroke="#2DD4BF" stroke-width="0.8" stroke-opacity="0.3"/>
  <path d="M70,80 L90,80" stroke="#2DD4BF" stroke-width="0.8" stroke-opacity="0.3"/>
  <path d="M20,70 L20,90" stroke="#2DD4BF" stroke-width="0.8" stroke-opacity="0.3"/>
  <path d="M80,70 L80,90" stroke="#2DD4BF" stroke-width="0.8" stroke-opacity="0.3"/>
</svg> 